# xmcd
#
# Track frame offsets:
#	150
#	27959
#	51689
#	68211
#	94783
#	114034
#	127031
#	144895
#	174118
#	187890
#	223147
#	252124
#	277288
#	309270
#
# Disc length: 4471 seconds
#
# Revision: 3
# Processed by: cddbd v1.5.2PL0 Copyright (c) Steve Scherf et al.
# Submitted via: audiograbber 1.83.01
#
DISCID=c711750e
DTITLE=Various Artist - Futuro Flamenco
DYEAR=2002
DGENRE=DANCE
TTITLE0=Rey De Copas - Frontera Del Ensueno (Jerez De Frontera Mix)
TTITLE1=Madrid De Los Austrias - Los Canos De Meca
TTITLE2=Bartholomaus and Raabenstein - A Night Out With Nel Foltz
TTITLE3=Banda Sonora - Guitarra  G (Afterlife Remix)
TTITLE4=Simian - Reasons
TTITLE5=Nitin Sawhney - Herecica Latino
TTITLE6=Manitas De Plata - Sol De Mi Tierra
TTITLE7=Oi Va Voi - D' Ror Yikra
TTITLE8=Los Chorbos - Sones Del Chicharro
TTITLE9=Gypsy - Gypsy (Retouched By The Hand Of Jazz Twit)
TTITLE10=Julious Papp - Libido (Sunset Excursion)
TTITLE11=The Latin Project - En Fuego
TTITLE12=Aco Bocina - Rumba Del Sol (MartinMorales and Mikey Benn Remix)
TTITLE13=Howie B - Making Love On Your Side (S Man's Dark Gypsy Mix)
EXTD=
EXTT0=
EXTT1=
EXTT2=
EXTT3=
EXTT4=
EXTT5=
EXTT6=
EXTT7=
EXTT8=
EXTT9=
EXTT10=
EXTT11=
EXTT12=
EXTT13=
PLAYORDER=
